<svg width="384" height="234" fill="none" xmlns="http://www.w3.org/2000/svg"><path d="M192 229c94.775 0 180.795-26.543 243.259-69.717C497.703 116.124 537 56.002 537-11c0-67.002-39.297-127.124-101.741-170.283C372.795-224.457 286.775-251 192-251c-94.775 0-180.796 26.543-243.26 69.717C-113.702-138.124-153-78.002-153-11c0 67.002 39.297 127.124 101.74 170.283C11.205 202.457 97.226 229 192 229Z" fill="#171a1c" stroke="#F3E972" stroke-width="10"/><mask id="a" style="mask-type:alpha" maskUnits="userSpaceOnUse" x="-148" y="-246" width="680" height="470"><ellipse cx="192" cy="-11" rx="340" ry="235" fill="#C4C4C4"/></mask><g mask="url(#a)"><g opacity=".9"><rect x="70" y="186.001" width="44" height="44" rx="12" fill="#C95296"/><path fill="#2D9DB3" d="M79.578 203.212h5.388v17.061h-5.388zM89.156 195.729h5.388v24.544h-5.388zM99.035 209.646h5.388v10.626h-5.388z"/><rect x="170" y="186.001" width="44" height="44" rx="12" fill="#F2B855"/><circle cx="192.154" cy="201.94" r="6.361" fill="#7558CC"/><path d="M204.35 220.498h-24.62v-4.19l.362-.332c6.899-6.327 17.534-6.182 24.258.332v4.19Z" fill="#7558CC"/><rect x="120" y="-14" width="44" height="44" rx="12" fill="#C95296"/><path d="M134.393 7.488H132c.342 7.582 5.755 9.74 8.547 10.356v4.993h2.906v-4.993c6.154-1.11 8.547-7.027 8.547-10.356h-2.393c-.684 10.356-15.043 10.171-15.214 0Z" fill="#6692C3"/><path d="M137-1.88c0-2.737 2.239-4.956 5-4.956s5 2.219 5 4.956v9.53c0 2.737-2.239 4.956-5 4.956s-5-2.219-5-4.956v-9.53Z" fill="#6692C3"/><rect x="220" y="-14" width="44" height="44" rx="12" fill="#3D7CC3"/><path fill-rule="evenodd" clip-rule="evenodd" d="M240.432 20.265V17.28c-1.173.04-3.412-.831-2.993-4.64l-7.515-7.298A12.387 12.387 0 0 0 229.637 8c0 6.297 4.707 11.494 10.795 12.265Zm6.285-23.698c4.489 1.854 7.648 6.275 7.648 11.433 0 3.194-1.212 6.106-3.201 8.3-.674-2.242-3.276-2.308-4.447-2.089V9.376c0-.842-.683-1.525-1.525-1.525h-9.325V4.857h4.838c.758 0 1.373-.614 1.373-1.373V.144h3.266c.759 0 1.373-.616 1.373-1.374v-2.203ZM257.416 8c0 8.513-6.902 15.415-15.415 15.415-8.514 0-15.415-6.902-15.415-15.415 0-8.514 6.901-15.415 15.415-15.415 8.513 0 15.415 6.901 15.415 15.415Z" fill="#F2B855"/><rect x="170" y="-14" width="44" height="44" rx="12" fill="#7BB966"/><path d="M178.797-3.277a2.21 2.21 0 0 1 2.2-2.218h16.133c1.013 0 1.834.828 1.834 1.849V7.446a1.841 1.841 0 0 1-1.834 1.849h-12.071c-.372 0-.73.142-1.002.399l-4.643 4.38a.366.366 0 0 1-.617-.27v-17.08Z" fill="#F2B855"/><path d="M205.566 2.27a2.21 2.21 0 0 0-2.2-2.218h-1.833v12.017H184.3v2.145c0 1.021.821 1.849 1.833 1.849h13.122c.373 0 .733.143 1.005.402l4.689 4.446a.366.366 0 0 0 .617-.27V2.272Z" fill="#F2B855"/><rect x="270" y="-14" width="44" height="44" rx="12" fill="#F2B855"/><path fill-rule="evenodd" clip-rule="evenodd" d="M281.824-5.245a3.967 3.967 0 0 1 3.967-3.966h12.421a3.966 3.966 0 0 1 3.966 3.966v26.49a3.966 3.966 0 0 1-3.966 3.966h-12.421a3.967 3.967 0 0 1-3.967-3.966v-26.49Zm3.293.973h13.769v21.85h-13.769v-21.85Zm6.887 28.135a2.394 2.394 0 1 0 0-4.788 2.394 2.394 0 0 0 0 4.788Z" fill="#C95296"/><rect x="70" y="-14" width="44" height="44" rx="12" fill="#2D9DB3"/><path d="M91.911-6.542 76.715 7.538h4.394v12.767h7.873V10.73h6.042v9.575h7.69V7.54h4.577L91.911-6.542Z" fill="#7558CC"/><rect x="120" y="186" width="44" height="44" rx="12" fill="#F2B855"/><path fill-rule="evenodd" clip-rule="evenodd" d="M141.967 220.387c6.683 0 12.1-5.463 12.1-12.202s-5.417-12.202-12.1-12.202-12.1 5.463-12.1 12.202 5.417 12.202 12.1 12.202Zm0 2.958c8.303 0 15.033-6.787 15.033-15.16 0-8.372-6.73-15.16-15.033-15.16-8.303 0-15.033 6.788-15.033 15.16 0 8.373 6.73 15.16 15.033 15.16Z" fill="#2D9DB3"/><path d="M142.017 199.31a8.743 8.743 0 0 1 4.086 1.039 8.823 8.823 0 0 1 3.138 2.835 8.938 8.938 0 0 1 .94 8.195 8.871 8.871 0 0 1-2.414 3.483 8.77 8.77 0 0 1-3.742 1.951 8.729 8.729 0 0 1-4.213-.026 8.774 8.774 0 0 1-3.718-1.999l5.878-6.604.045-8.874Z" fill="#2D9DB3"/><rect x="220" y="36" width="44" height="44" rx="12" fill="#2D9DB3"/><path fill-rule="evenodd" clip-rule="evenodd" d="m248.285 49.397 5.027-3.52 1.716 2.453-5.026 3.52-1.717-2.453Zm-13.959 19.529h-3.217v-6.137h-1.647c-1.616 0-2.817-1.346-2.843-2.17a87.206 87.206 0 0 1 0-4.789c.06-1.915 2.12-2.394 3.143-2.394h6.061l7.633-4.565V67.28l-7.633-4.49h-1.497v6.136Zm10.744-15.94V63.24c3.014-2.733 2.994-7.498 0-10.252Zm12.343 3.667h-6.136v2.994h6.136v-2.994Zm-2.383 11.153-5.026-3.52-1.717 2.452 5.026 3.52 1.717-2.452Z" fill="#7558CC"/><rect x="170" y="136" width="44" height="44" rx="12" fill="#C95296"/><path d="M182.836 155.043h3.667v8.874h-3.667v-8.874ZM190.531 155.043h3.667v8.874h-3.667v-8.874ZM198.234 155.043h3.667v8.874h-3.667v-8.874ZM180.266 170.57v-4.067h24.2v4.067h-24.2ZM180.453 149.68v2.773h24.017v-2.588l-12.1-6.47-11.917 6.285Z" fill="#7BB966"/><rect x="270" y="36" width="44" height="44" rx="12" fill="#7BB966"/><path d="M297.915 54.845 282.2 71.084l-2.993-3.143 10.402-10.477-2.545-2.469-1.047 1.048-1.871-1.946v4.041l-.973.898-4.939-4.939.973-.973h3.966l-2.02-1.945 5.313-5.313c2.215-1.736 4.564-.524 5.462.299l-2.918 2.993 1.945 2.02-.972.824 2.544 2.619 2.544-2.62c-.838-2.573.449-4.464 1.197-5.088 1.796-1.975 4.49-1.322 5.613-.748l-3.817 3.667 2.17 2.02 3.742-3.592c.838 2.814.1 4.515-.374 5.014-1.796 2.275-4.54 1.995-5.687 1.571ZM297.422 59.484l8.427 8.505-3.04 3.012-8.427-8.504z" fill="#F2B855"/><rect x="70" y="136" width="44" height="44" rx="12" fill="#7558CC"/><path d="m92.23 143.395-12.118 5.546c-1.649 18.117 6.622 22.185 12.117 23.848 12.101-4.252 12.468-13.865 11.735-23.848l-11.735-5.546Z" fill="#4BA5B6"/><path d="m91.995 146.354-9.167 4.067v7.58h9.167v-11.647ZM101.35 158H92l.183 11.832c7.187-2.662 9.106-8.997 9.167-11.832Z" fill="#7558CC"/><rect x="120" y="86" width="44" height="44" rx="12" fill="#F2B855"/><rect x="220" y="86" width="44" height="44" rx="12" fill="#3D7CC3"/><rect x="170" y="86" width="44" height="44" rx="12" fill="#2D9DB3"/><rect x="70" y="86" width="44" height="44" rx="12" fill="#7558CC"/><rect x="270" y="86" width="44" height="44" rx="12" fill="#7558CC"/><rect x="220" y="186.001" width="44" height="44" rx="12" fill="#7558CC"/><path d="m241.996 193.396-13.75 10.907 13.75 10.907 13.75-10.907-13.75-10.907Z" fill="#C95296"/><path d="m230.629 210.033-2.567 2.034 14.117 11.092 13.75-11.092-2.566-2.034-11.367 9.059-11.367-9.059Z" fill="#C95296"/><rect x="120" y="36" width="44" height="44" rx="12" fill="#2D9DB3"/><path d="M141.814 45.727H129.43v24.844h24.993V58.187M136.387 63.462l18.183-17.884" stroke="#F2B855" stroke-width="3.051" stroke-linejoin="round"/><path d="M145.441 45.727h8.98v8.98" stroke="#F2B855" stroke-width="3.051"/><rect x="270" y="186.001" width="44" height="44" rx="12" fill="#F2B855"/><path fill-rule="evenodd" clip-rule="evenodd" d="m285.149 199.095 2.619-1.496.557-3.653a.898.898 0 0 1 .887-.762h5.579c.438 0 .813.316.886.747l.621 3.668 2.694 1.496 3.338-1.236a.898.898 0 0 1 1.085.384l2.805 4.733a.898.898 0 0 1-.225 1.169l-2.962 2.283v3.143l2.966 2.286a.897.897 0 0 1 .226 1.165l-2.809 4.799a.898.898 0 0 1-1.093.386l-3.63-1.377-2.395 1.422-.625 3.812a.897.897 0 0 1-.886.752h-5.577a.898.898 0 0 1-.887-.76l-.555-3.58-2.619-1.646-3.547 1.369a.898.898 0 0 1-1.102-.392l-2.748-4.794a.897.897 0 0 1 .223-1.152l2.908-2.29v-3.143l-2.904-2.286a.898.898 0 0 1-.222-1.156l2.753-4.745a.898.898 0 0 1 1.074-.396l3.565 1.25Zm6.886 14.666a5.687 5.687 0 1 0 0-11.374 5.687 5.687 0 0 0 0 11.374Z" fill="#2D9DB3"/><rect x="170" y="36" width="44" height="44" rx="12" fill="#3D7CC3"/><path d="M202.875 46.965a15.545 15.545 0 0 1 4.454 9.633 15.578 15.578 0 0 1-2.754 10.258 15.4 15.4 0 0 1-8.668 6.063c-3.509.93-7.231.583-10.51-.98a15.45 15.45 0 0 1-7.415-7.562 15.593 15.593 0 0 1-.836-10.593 15.499 15.499 0 0 1 6.136-8.646 15.32 15.32 0 0 1 10.224-2.638l-.324 3.286a12.056 12.056 0 0 0-8.046 2.076 12.196 12.196 0 0 0-4.829 6.805c-.763 2.77-.53 5.722.658 8.336a12.165 12.165 0 0 0 5.835 5.951 12.048 12.048 0 0 0 8.272.771 12.117 12.117 0 0 0 6.821-4.771 12.263 12.263 0 0 0-1.337-15.654l2.319-2.335Z" fill="#7BB966"/><ellipse cx="191.988" cy="57.927" rx="3.3" ry="3.322" fill="#7BB966"/><path fill="#7BB966" d="M190.152 42.424h3.3v13.288h-3.3z"/><path d="M198.469 51.401a9.28 9.28 0 0 1 1.012 11.84 9.169 9.169 0 0 1-5.16 3.61 9.11 9.11 0 0 1-6.256-.584 9.202 9.202 0 0 1-4.414-4.502 9.288 9.288 0 0 1-.497-6.305 9.224 9.224 0 0 1 3.652-5.146 9.12 9.12 0 0 1 6.086-1.57l-.295 2.99a6.15 6.15 0 0 0-4.104 1.058 6.219 6.219 0 0 0-2.463 3.471 6.262 6.262 0 0 0 .336 4.252 6.2 6.2 0 0 0 2.976 3.036 6.144 6.144 0 0 0 4.219.393 6.18 6.18 0 0 0 3.479-2.434 6.253 6.253 0 0 0-.682-7.984l2.111-2.125Z" fill="#7BB966"/><rect x="370" y="186.001" width="44" height="44" rx="12" fill="#F2B855"/><path d="M404.35 220.498h-24.62v-4.19l.362-.332c6.899-6.327 17.534-6.182 24.258.332v4.19Z" fill="#7558CC"/><rect x="370" y="-14" width="44" height="44" rx="12" fill="#7BB966"/><path d="M378.797-3.277a2.21 2.21 0 0 1 2.2-2.218h16.133c1.013 0 1.834.828 1.834 1.849V7.446a1.841 1.841 0 0 1-1.834 1.849h-12.071c-.372 0-.73.142-1.002.399l-4.643 4.38a.366.366 0 0 1-.617-.27v-17.08Z" fill="#F2B855"/><rect x="370" y="36" width="44" height="44" rx="12" fill="#C95296"/><path d="M382.836 55.043h3.667v8.874h-3.667v-8.874ZM380.266 70.57v-4.067h24.2v4.067h-24.2ZM380.453 49.68v2.773h24.017v-2.588l-12.1-6.47-11.917 6.285Z" fill="#7BB966"/><rect x="370" y="86" width="44" height="44" rx="12" fill="#2D9DB3"/><rect x="370" y="136.001" width="44" height="44" rx="12" fill="#3D7CC3"/><path d="M402.875 146.966a15.543 15.543 0 0 1 4.454 9.633 15.58 15.58 0 0 1-2.754 10.258 15.399 15.399 0 0 1-8.668 6.063c-3.509.93-7.231.583-10.51-.98a15.451 15.451 0 0 1-7.415-7.562 15.594 15.594 0 0 1-.836-10.593 15.495 15.495 0 0 1 6.136-8.646 15.315 15.315 0 0 1 10.224-2.638l-.324 3.286a12.053 12.053 0 0 0-8.046 2.076 12.199 12.199 0 0 0-4.829 6.805c-.763 2.77-.53 5.722.658 8.336a12.168 12.168 0 0 0 5.835 5.951 12.046 12.046 0 0 0 8.272.771 12.116 12.116 0 0 0 6.821-4.771 12.264 12.264 0 0 0-1.337-15.654l2.319-2.335Z" fill="#7BB966"/><path d="M398.469 151.402a9.28 9.28 0 0 1 1.012 11.84 9.169 9.169 0 0 1-5.16 3.609 9.11 9.11 0 0 1-6.256-.583 9.202 9.202 0 0 1-4.414-4.502 9.288 9.288 0 0 1-.497-6.305 9.223 9.223 0 0 1 3.652-5.146 9.122 9.122 0 0 1 6.086-1.571l-.295 2.99a6.153 6.153 0 0 0-4.104 1.06 6.214 6.214 0 0 0-2.463 3.47 6.262 6.262 0 0 0 .336 4.252 6.2 6.2 0 0 0 2.976 3.036 6.142 6.142 0 0 0 4.219.393 6.176 6.176 0 0 0 3.479-2.434 6.25 6.25 0 0 0-.682-7.984l2.111-2.125Z" fill="#7BB966"/><rect x="120" y="136.001" width="44" height="44" rx="12" fill="#7BB966"/><path d="M149.254 164.464c0-2.54-1.945-3.935-2.918-4.781 7.379-.514 10.563 2.477 11.354 4.244.07.155.095.325.095.496v3.85h-8.531v-3.809Z" fill="#3D7CC3"/><ellipse cx="136.084" cy="152.287" rx="4.49" ry="4.482" fill="#3D7CC3"/><ellipse cx="147.759" cy="152.287" rx="4.49" ry="4.482" fill="#3D7CC3"/><path d="M126.133 164.29v3.909h20.204l-.128-3.901a1.48 1.48 0 0 0-.523-1.08l-.253-.214a14.385 14.385 0 0 0-18.814.209 1.437 1.437 0 0 0-.486 1.077Z" fill="#3D7CC3"/><rect x="320" y="-14" width="44" height="44" rx="12" fill="#C95296"/><path d="M334.393 7.488H332c.342 7.582 5.755 9.74 8.547 10.356v4.993h2.906v-4.993c6.154-1.11 8.547-7.027 8.547-10.356h-2.393c-.684 10.356-15.043 10.171-15.214 0Z" fill="#6692C3"/><path d="M337-1.88c0-2.737 2.239-4.956 5-4.956s5 2.219 5 4.956v9.53c0 2.737-2.239 4.956-5 4.956s-5-2.219-5-4.956v-9.53Z" fill="#6692C3"/><rect x="320" y="136" width="44" height="44" rx="12" fill="#F2B855"/><path fill-rule="evenodd" clip-rule="evenodd" d="M341.967 170.387c6.683 0 12.1-5.463 12.1-12.202s-5.417-12.202-12.1-12.202-12.1 5.463-12.1 12.202 5.417 12.202 12.1 12.202Zm0 2.958c8.303 0 15.033-6.787 15.033-15.16 0-8.372-6.73-15.16-15.033-15.16-8.303 0-15.033 6.788-15.033 15.16 0 8.373 6.73 15.16 15.033 15.16Z" fill="#2D9DB3"/><path d="M342.017 149.31a8.743 8.743 0 0 1 4.086 1.039 8.823 8.823 0 0 1 3.138 2.835 8.938 8.938 0 0 1 .94 8.195 8.871 8.871 0 0 1-2.414 3.483 8.77 8.77 0 0 1-3.742 1.951 8.729 8.729 0 0 1-4.213-.026 8.774 8.774 0 0 1-3.718-1.999l5.878-6.604.045-8.874Z" fill="#2D9DB3"/><rect x="320" y="86" width="44" height="44" rx="12" fill="#F2B855"/><rect x="320" y="186.001" width="44" height="44" rx="12" fill="#2D9DB3"/><path d="M341.814 195.729H329.43v24.843h24.993v-12.384M336.387 213.463l18.183-17.884" stroke="#F2B855" stroke-width="3.051" stroke-linejoin="round"/><path d="M345.441 195.729h8.98v8.979" stroke="#F2B855" stroke-width="3.051"/><rect x="320" y="36" width="44" height="44" rx="12" fill="#7BB966"/><path d="M349.254 64.463c0-2.54-1.945-3.935-2.918-4.781 7.379-.514 10.563 2.477 11.354 4.243.07.157.095.326.095.497v3.85h-8.531v-3.81Z" fill="#3D7CC3"/><ellipse cx="336.084" cy="52.286" rx="4.49" ry="4.482" fill="#3D7CC3"/><ellipse cx="347.759" cy="52.286" rx="4.49" ry="4.482" fill="#3D7CC3"/><path d="M326.133 64.29v3.908h20.204l-.128-3.901a1.478 1.478 0 0 0-.523-1.08l-.253-.214a14.385 14.385 0 0 0-18.814.209 1.438 1.438 0 0 0-.486 1.078Z" fill="#3D7CC3"/><rect x="220" y="136.001" width="44" height="44" rx="12" fill="#7BB966"/><path fill-rule="evenodd" clip-rule="evenodd" d="m235.728 148.752 2.658 2.701-6.893 6.785 6.908 6.955-2.688 2.671-9.592-9.656 9.607-9.456ZM248.468 148.752l-2.659 2.701 6.893 6.785-6.908 6.955 2.689 2.671 9.591-9.656-9.606-9.456Z" fill="#7170AF"/><rect x="20" y="-14" width="44" height="44" rx="12" fill="#3D7CC3"/><path fill-rule="evenodd" clip-rule="evenodd" d="M40.432 20.265V17.28c-1.173.04-3.413-.831-2.993-4.64l-7.515-7.298A12.412 12.412 0 0 0 29.637 8c0 6.297 4.707 11.494 10.795 12.265Zm6.285-23.698C51.208-1.579 54.365 2.842 54.365 8c0 3.194-1.212 6.106-3.2 8.3-.675-2.242-3.277-2.308-4.447-2.089V9.376c0-.842-.684-1.525-1.526-1.525h-9.325V4.857h4.838c.758 0 1.373-.614 1.373-1.373V.144h3.266c.759 0 1.373-.616 1.373-1.374v-2.203ZM57.416 8c0 8.513-6.902 15.415-15.415 15.415-8.514 0-15.415-6.902-15.415-15.415C26.586-.514 33.487-7.415 42-7.415 50.514-7.415 57.416-.514 57.416 8Z" fill="#F2B855"/><rect x="20" y="36" width="44" height="44" rx="12" fill="#2D9DB3"/><path fill-rule="evenodd" clip-rule="evenodd" d="m48.285 49.397 5.027-3.52 1.716 2.453-5.026 3.52-1.717-2.453ZM34.327 68.926h-3.218v-6.137h-1.647c-1.616 0-2.817-1.346-2.843-2.17a87.308 87.308 0 0 1 0-4.789c.06-1.915 2.12-2.394 3.143-2.394h6.061l7.633-4.565V67.28l-7.633-4.49h-1.496v6.136Zm10.743-15.94V63.24c3.014-2.733 2.994-7.498 0-10.252Zm12.343 3.667h-6.136v2.994h6.136v-2.994ZM55.03 67.806l-5.026-3.52-1.717 2.452 5.026 3.52 1.717-2.452Z" fill="#7558CC"/><rect x="20" y="86" width="44" height="44" rx="12" fill="#3D7CC3"/><rect x="20" y="186.001" width="44" height="44" rx="12" fill="#7558CC"/><path d="m41.996 193.396-13.75 10.907 13.75 10.907 13.75-10.907-13.75-10.907Z" fill="#C95296"/><path d="m30.63 210.033-2.567 2.034 14.116 11.092 13.75-11.092-2.567-2.034-11.366 9.059-11.367-9.059Z" fill="#C95296"/><rect x="20" y="136.001" width="44" height="44" rx="12" fill="#7BB966"/><path fill-rule="evenodd" clip-rule="evenodd" d="m35.728 148.752 2.658 2.701-6.893 6.785 6.909 6.955-2.69 2.671-9.59-9.656 9.606-9.456ZM48.468 148.752l-2.66 2.701 6.894 6.785-6.908 6.955 2.689 2.671 9.591-9.656-9.606-9.456Z" fill="#7170AF"/><rect x="70" y="36" width="44" height="44" rx="12" fill="#2D9DB3"/><path d="M79.878 44.072c-1.257-.06-1.721.623-1.796.971 0 20.08 16.962 26.296 25.442 26.893 1.856.24 2.37-.597 2.395-1.046-.025-1.519-.06-4.825 0-5.901.06-1.076-.624-1.494-.973-1.569-1.522 0-4.774-.15-5.612-.747-.838-.598-1.746-.05-2.096.299l-3.367 3.362c-5.088-2.152-8.905-7.72-10.177-10.235l3.068-3.212c.599-.358.749-1.145.749-1.494-.599-1.016-.898-4.158-.973-5.603.06-1.315-.823-1.693-1.272-1.718h-5.388Z" fill="#C95296"/><rect x="270" y="136.001" width="44" height="44" rx="12" fill="#7558CC"/><path fill="#F2B855" d="M293.461 144.123h12.467v9.597h-12.467zM278.059 144.123h12.467v15.872h-12.467zM278.059 162.211h12.467v9.597h-12.467zM293.461 155.934h12.467v15.872h-12.467z"/><rect x="-30" y="-14" width="44" height="44" rx="12" fill="#F2B855"/><path fill-rule="evenodd" clip-rule="evenodd" d="M-18.176-5.245a3.966 3.966 0 0 1 3.967-3.966h12.42a3.966 3.966 0 0 1 3.967 3.966v26.49a3.966 3.966 0 0 1-3.966 3.966H-14.21a3.966 3.966 0 0 1-3.967-3.966v-26.49Zm3.293.973h13.769v21.85h-13.769v-21.85Zm6.887 28.135a2.394 2.394 0 1 0 0-4.789 2.394 2.394 0 0 0 0 4.79Z" fill="#C95296"/><rect x="-30" y="36" width="44" height="44" rx="12" fill="#7BB966"/><path d="M-2.085 54.845-17.8 71.084l-2.993-3.143 10.401-10.477-2.544-2.469-1.047 1.048-1.871-1.946v4.041l-.973.898-4.939-4.939.973-.973h3.966l-2.02-1.945 5.313-5.313c2.215-1.736 4.564-.524 5.462.299l-2.918 2.993 1.945 2.02-.972.824 2.544 2.619L-4.93 52c-.838-2.573.45-4.464 1.197-5.088 1.796-1.975 4.49-1.322 5.613-.748l-3.817 3.667 2.17 2.02 3.742-3.592c.838 2.814.1 4.515-.374 5.014-1.796 2.275-4.54 1.995-5.687 1.571ZM-2.578 59.484 5.85 67.99 2.809 71l-8.427-8.504z" fill="#F2B855"/><rect x="-30" y="86" width="44" height="44" rx="12" fill="#7558CC"/><rect x="-30" y="186.001" width="44" height="44" rx="12" fill="#F2B855"/><path fill-rule="evenodd" clip-rule="evenodd" d="m-14.851 199.095 2.619-1.496.557-3.653a.898.898 0 0 1 .888-.762h5.578c.438 0 .813.316.886.747l.621 3.668 2.694 1.496 3.338-1.236a.898.898 0 0 1 1.085.384l2.805 4.733a.898.898 0 0 1-.225 1.169l-2.962 2.283v3.143l2.966 2.286a.898.898 0 0 1 .226 1.165l-2.809 4.799a.899.899 0 0 1-1.093.386l-3.63-1.377-2.395 1.422-.625 3.812a.897.897 0 0 1-.886.752h-5.577a.897.897 0 0 1-.887-.76l-.555-3.58-2.62-1.646-3.546 1.369a.899.899 0 0 1-1.102-.392l-2.748-4.794a.898.898 0 0 1 .223-1.152l2.908-2.29v-3.143l-2.904-2.286a.898.898 0 0 1-.222-1.156l2.753-4.745a.897.897 0 0 1 1.074-.396l3.565 1.25Zm6.886 14.666a5.687 5.687 0 1 0 0-11.374 5.687 5.687 0 0 0 0 11.374Z" fill="#2D9DB3"/><rect x="-30" y="136.001" width="44" height="44" rx="12" fill="#7558CC"/><path fill="#F2B855" d="M-6.539 144.123H5.928v9.597H-6.539zM-6.539 155.934H5.928v15.872H-6.539z"/></g><path d="M68.55 86.967c-1.123 27.403-7.47 50.96-4.294 52.339l12.63 10.522a4.945 4.945 0 0 0 5.572.522l17.383-9.673h80.449c15.644-1.29 19.749-13.665 19.846-19.691v-26.19c.312-5.903-1.232-10.52-2.043-12.092-4.969-10.095-16.189-12.34-21.177-12.202H90.822c-13.487.585-20.467 11.22-22.27 16.465h-.003Z" fill="#171a1c"/><path d="M49.472 111.817c-3.057 10.213 9.537 16.394 14.609 16.393l-.941 6.816c-.248 7.131 5.354 6.027 8.186 4.583l19.834-11.428h80.449c15.643-1.29 19.749-13.665 19.846-19.691V82.3c.311-5.903-1.232-10.521-2.043-12.092-4.969-10.095-16.189-12.34-21.177-12.202H82.141c-13.488.585-20.467 11.22-22.27 16.465l-10.399 37.346Z" fill="#fff"/><path d="M107.596 84.2c-2.806.222-3.692 1.76-3.784 2.502l-.023 22.805c.166 2.41 2.346 4.048 3.415 4.565 1.218.871 4.875.734 6.552.556 2.177-.185 5.936-2.518 7.544-3.661 1.624-1.224 2.045-.757 2.053-.371.069.95.729 2.976 2.815 3.476 2.085.501 6.698.209 8.743 0 2.621.13 3.246-1.815 3.23-2.804V86.842c-.387-1.483-2.192-2.256-3.045-2.457-.462-.162-2.838-.37-4.314-.44-1.182-.056-3.184.147-4.038.255-2.399.203-3.153 1.846-3.23 2.642l-.161 16.686c0 2.746-2.407 3.267-3.207 3.151-.978.019-1.542-1.031-1.546-1.599-.03-5.284-.101-16.222-.138-17.705-.037-1.483-.923-2.364-1.361-2.619-2.178-.909-7.244-.75-9.505-.556ZM84.096 70.442c-5.158 0-4.889 3.093-4.62 5.065-6.56.804-10.2 6.47-11.2 9.203-1.017 2.908-.604 6.393-.27 7.772 1.232 5.661 9.418 7.953 13.357 8.391 4.558.557 4.825 2.681 4.389 3.673-2.033 3.001-8.11 1.509-10.894.387-4.773-1.454-6.377.606-6.583 1.818-1.447 4.021 1.938 5.929 3.811 6.38.832.711 5.145 1.327 7.198 1.546-.554 3.341 1.155 4.305 2.08 4.37h3.156c2.833.247 4.183-1.109 4.504-1.818v-3.17c8.776-2.166 11.278-8.533 11.432-11.446.462-5.135-1.398-7.991-2.386-8.777-1.756-2.506-6.763-3.545-9.046-3.751-5.882-.433-6.634-3.068-6.275-4.33.339-3.218 6.916-2.037 10.162-1.045 2.618.99 4.273-.799 4.774-1.817 2.217-5.661-5.082-7.643-9.008-7.927.955-3.898-2.656-4.64-4.581-4.524Z" fill="#171a1c"/><path fill-rule="evenodd" clip-rule="evenodd" d="M142.562 111.306V77.208c.311-.631 1.406-1.917 3.305-2.013 1.9-.095 5.793-.04 7.501 0 .996-.023 3.151.347 3.8 2.013v8.901c.125.51.712 1.225 2.058 0 1.386-.967 5.051-2.827 8.629-2.524 1.972-.14 6.543.584 9.044 4.592.706 1.186 2.142 4.485 2.237 8.19.268 3.882-.184 12.435-4.136 15.592-.973 1.025-3.804 3.026-7.352 2.832-1.727-.024-5.505-.406-6.797-1.743l-2.678-2.087c-.366-.382-1.137-.788-1.293.652-.155 1.44-1.003 2.007-1.408 2.111-1.575.389-5.645 1.001-9.327.332-1.16-.016-3.501-.588-3.583-2.75Zm15.024-17.615v9.854c0 1.98 1.87 4.692 5.083 2.221.688-.529 1.499-2.614 1.499-4.723v-5.105c0-1.76-1.057-4.948-3.456-4.825-.851 0-3.126.104-3.126 2.578Z" fill="#171a1c"/><path d="M207.228 77.307c-11.335 3.659-11.122 17.2-10.865 22.081.417 7.921 8.484 18.342 15.98 21.97 7.497 3.627 15.189 2.444 19.585.985 3.517-1.167 3.498-2.614 3.706-5.01.377-4.352-5.045-11.733-7.939-12.308-9.353-1.86-8.694-7.285-6.921-9.065 2.239-2.25 2.572-2.053 11.293-1.075 1.756.197 2.778-2.071 3.236-3.175 1.602-5.488-6.577-14.605-10.11-15.29-4.553-.883-16.212.15-17.965.887Z" fill="#171a1c"/><path d="M244.229 74.866c-2.347.265-2.854 2.256-2.813 3.218-7.274 22.79-7.356 33.489-6.886 34.037 6.633 7.755 7.604 7.334 10.058 7.755 1.964.337 6.581.322 8.652 0 2.012-.313 2.934-1.498 2.934-2.015l-.56-31.123c.048-2.144.037-2.156-1.78-4.096l-.055-.059c-2.259-2.413-4.474-8.123-9.55-7.717Z" fill="#171a1c"/><path d="M254.719 89.31c.092-.74.978-2.28 3.783-2.502 2.261-.193 5.549-.188 5.549-.188s8.639 4.504 8.676 5.988c.037 1.483.108 12.421.139 17.705.003.568 4.673 1.805 5.651 1.787.8.115 3.207-.406 3.207-3.152l-7.303-19.498c.077-.796.83-2.438 3.23-2.642.853-.108 2.856-.31 4.037-.255 1.476.07 2.778-2.244 3.239-2.082.854.2 8.958 3.496 9.346 4.98l.373 30.049c.015.989-.609 2.934-3.23 2.804-2.045.209-8.524.501-10.61 0-1.183-.284-3.109-2.869-4.566-5.226.233.906.227 1.722-.302 2.121-1.607 1.143-5.366 3.476-7.544 3.661-1.676.178-5.334.316-6.552-.556-1.069-.517-6.981-7.779-7.147-10.189l.024-22.804Z" fill="#171a1c"/><path d="m296.498 79.985-4.572 31.668c.082 2.162 8.861 10.788 10.021 10.805 3.682.668 7.752.056 9.326-.333.405-.104 1.254-.671 1.409-2.111.155-1.44.926-1.034 1.293-.652l2.678 2.087c1.292 1.337 5.07 1.719 6.797 1.744 3.548.193 6.379-1.808 7.351-2.833 3.953-3.157 4.405-13.585 4.136-17.466-.095-3.706-3.396-7.005-4.102-8.19-2.502-4.009-7.072-4.732-9.045-4.593-3.578-.302-7.243 1.557-8.628 2.525-1.346 1.224-1.933.51-2.059 0v-7.508c-.515-1.326-4.214-9.469-6.114-9.373-1.9.095-8.181 3.6-8.491 4.23Z" fill="#171a1c"/><path d="M209.263 76.148c-11.335 3.658-13.654 14.335-13.397 19.215.417 7.921 3.154 13.271 10.651 16.898 7.496 3.627 15.188 2.444 19.584.986 3.517-1.167 3.499-2.614 3.706-5.01.377-4.353-4.728-3.532-7.748-2.796-10.236.82-12.237-7.761-11.5-12.104 1.664-9.809 9.904-9.87 13.815-8.673 2.983 1.01 4.645-.946 5.103-2.05 1.594-5.465-5.667-6.873-9.217-7.561l-.046-.009c-4.553-.883-9.197.368-10.951 1.104ZM236.882 75.059c-2.347.265-2.854 2.255-2.813 3.218-.001 10.625.011 32.057.059 32.779.06.902.659 2.405 3.113 2.826 1.964.337 6.582.322 8.652 0 2.012-.312 2.934-1.498 2.934-2.014V78.277c.048-2.166-1.576-3.048-2.395-3.218-2.586-.577-7.444-.24-9.55 0ZM256.936 84.1c-2.806.222-3.692 1.761-3.784 2.503l-.023 22.804c.166 2.41 2.345 4.048 3.414 4.566 1.218.871 4.876.733 6.552.556 2.178-.186 5.937-2.519 7.544-3.662 1.625-1.224 2.046-.757 2.054-.371.069.95.729 2.976 2.814 3.477 2.086.5 6.699.208 8.744 0 2.621.129 3.245-1.816 3.23-2.805V86.742c-.388-1.483-2.192-2.255-3.045-2.456-.462-.162-2.838-.371-4.314-.44-1.182-.056-3.184.146-4.038.254-2.399.204-3.153 1.846-3.23 2.642l-.161 16.686c0 2.746-2.407 3.268-3.207 3.152-.978.018-1.542-1.031-1.546-1.599-.031-5.284-.101-16.222-.138-17.706-.037-1.483-.923-2.364-1.361-2.619-2.178-.908-7.245-.749-9.505-.556ZM291.906 77.11v34.098c.082 2.162 2.423 2.735 3.583 2.751 3.682.668 7.752.057 9.326-.333.405-.103 1.254-.67 1.409-2.11.156-1.44.927-1.035 1.293-.652l2.678 2.087c1.292 1.336 5.07 1.719 6.797 1.743 3.548.193 6.379-1.808 7.351-2.833 3.953-3.157 4.405-11.71 4.136-15.591-.095-3.706-1.53-7.005-2.236-8.19-2.502-4.009-7.072-4.732-9.044-4.593-3.578-.302-7.244 1.557-8.629 2.525-1.346 1.224-1.933.51-2.058 0V77.11c-.649-1.665-2.804-2.036-3.8-2.012-1.709-.04-5.601-.096-7.501 0-1.9.095-2.995 1.381-3.305 2.012Z" fill="#fff"/><path d="M306.93 103.448v-9.854c0-2.475 2.274-2.579 3.126-2.579 2.399-.122 3.456 3.066 3.456 4.825v5.106c0 2.108-.812 4.193-1.5 4.722-3.212 2.471-5.082-.24-5.082-2.22Z" fill="#171a1c"/></g></svg>